<?xml version="1.0" encoding="UTF-8"?>
<svg version="1.1" xmlns="http://www.w3.org/2000/svg" width="460" height="460">
<path d="M0 0 C0.84962311 0.00182281 1.69924622 0.00364563 2.57461548 0.00552368 C15.82049379 0.0532104 28.74519696 0.58932878 41.75 3.3125 C42.57870605 3.48410645 43.40741211 3.65571289 44.26123047 3.83251953 C63.05076634 7.8627075 80.85757504 14.16896758 97.75 23.3125 C98.49556152 23.70872559 99.24112305 24.10495117 100.00927734 24.51318359 C109.41218888 29.51698064 118.36419243 34.69777499 126.75 41.3125 C128.00490234 42.28123047 128.00490234 42.28123047 129.28515625 43.26953125 C145.27560944 55.79991729 159.75950652 69.91407273 171.75 86.3125 C172.45640625 87.18648438 173.1628125 88.06046875 173.890625 88.9609375 C175.40765877 90.87953903 176.64799094 92.67504615 177.8125 94.8125 C178.30943359 95.70775391 178.30943359 95.70775391 178.81640625 96.62109375 C179.12449219 97.17925781 179.43257813 97.73742187 179.75 98.3125 C181.25761594 100.88801056 182.78677972 103.3644483 184.51171875 105.80078125 C212.51989756 147.80026618 218.40211019 206.08707413 209.11572266 254.62792969 C205.15664695 273.03637087 199.1744978 290.49310857 190.75 307.3125 C190.41097656 307.99844238 190.07195312 308.68438477 189.72265625 309.39111328 C184.57998028 319.73062343 178.78326264 329.15842228 171.75 338.3125 C171.28239258 338.92287109 170.81478516 339.53324219 170.33300781 340.16210938 C167.18645961 344.25156259 163.98633053 348.2937599 160.75 352.3125 C159.78126953 353.51712891 159.78126953 353.51712891 158.79296875 354.74609375 C157.49737672 356.3127829 156.13335451 357.82273361 154.75 359.3125 C154.09 359.3125 153.43 359.3125 152.75 359.3125 C152.5025 359.93125 152.255 360.55 152 361.1875 C150.51259631 363.71608627 149.31321991 364.03089004 146.75 365.3125 C146.47800781 365.90804688 146.20601563 366.50359375 145.92578125 367.1171875 C143.60948405 371.44196832 139.14375191 374.09271068 135.33398438 377.06835938 C133.79851704 378.27439229 132.28169962 379.50405266 130.765625 380.734375 C117.84413258 391.03221413 103.68234352 399.28224137 88.75 406.3125 C87.86699219 406.74949219 86.98398437 407.18648438 86.07421875 407.63671875 C37.76057345 430.87712172 -22.07757124 430.69417229 -72.125 413.5 C-85.08580694 408.80320831 -97.6103934 402.68195506 -109.25 395.3125 C-110.384375 394.69375 -111.51875 394.075 -112.6875 393.4375 C-117.84053459 390.50146866 -122.5147015 386.86700156 -127.25 383.3125 C-128.27867187 382.56613281 -129.30734375 381.81976563 -130.3671875 381.05078125 C-146.32010397 369.23274627 -160.79351027 354.5322784 -172.25 338.3125 C-172.86246582 337.45857666 -172.86246582 337.45857666 -173.48730469 336.58740234 C-189.94953435 313.45700884 -201.55505559 287.877409 -208 260.25 C-208.19859619 259.41339844 -208.39719238 258.57679688 -208.60180664 257.71484375 C-211.88000905 242.97907824 -212.62982434 228.22923274 -212.5625 213.1875 C-212.56067719 212.33699066 -212.55885437 211.48648132 -212.55697632 210.61019897 C-212.46014871 183.68171585 -208.08894246 158.42881332 -198.25 133.3125 C-197.99524902 132.65862305 -197.74049805 132.00474609 -197.47802734 131.33105469 C-191.40930285 116.02797636 -183.11227251 101.48748456 -173.25 88.3125 C-172.80914062 87.69246094 -172.36828125 87.07242188 -171.9140625 86.43359375 C-142.14443181 45.22072352 -97.58598258 16.14904641 -48.25 4.5625 C-47.42161621 4.36382324 -46.59323242 4.16514648 -45.73974609 3.96044922 C-30.67178626 0.59631891 -15.38506652 -0.0690711 0 0 Z " fill="#000000" transform="translate(230.25,17.6875)"/>
<path d="M0 0 C15.4275 -0.103125 30.855 -0.20625 46.75 -0.3125 C54.02562988 -0.38078003 54.02562988 -0.38078003 61.44824219 -0.45043945 C67.42431641 -0.47302246 67.42431641 -0.47302246 70.23223877 -0.47721863 C72.17093666 -0.48483847 74.10961258 -0.50230218 76.04815674 -0.52787781 C92.47555112 -0.73355545 104.14401543 0.99495959 116.64453125 12.515625 C124.28107743 20.48083267 126.68774242 30.10286528 126.5300293 40.83447266 C126.19386 48.06333942 124.09719291 53.74573514 120.1875 59.8125 C118.79548431 61.94244811 118.79548431 61.94244811 119.0625 64.4375 C119.93070852 67.15476767 119.93070852 67.15476767 121.9375 69.75 C127.2451821 78.11362027 126.98945421 89.029067 125.4375 98.5625 C122.8832214 108.33616325 116.38446205 115.71289077 108 121 C102.73487591 124.04186498 98.03280443 126.12831519 91.87445068 126.12025452 C91.0628738 126.12163201 90.25129692 126.12300951 89.4151268 126.12442875 C88.53015644 126.12083064 87.64518608 126.11723253 86.73339844 126.11352539 C85.78134647 126.11364593 84.82929451 126.11376646 83.84839249 126.11389065 C80.76869617 126.11314467 77.68906048 126.1055307 74.609375 126.09765625 C72.70719431 126.09618586 70.80501321 126.09516575 68.90283203 126.09460449 C61.85188185 126.08936289 54.80094033 126.07540168 47.75 126.0625 C31.9925 126.041875 16.235 126.02125 0 126 C0 84.42 0 42.84 0 0 Z " fill="#FDFDFD" transform="translate(241,84)"/>
<path d="M0 0 C1.28871506 -0.0127597 2.57743011 -0.02551941 3.90519714 -0.03866577 C5.30569304 -0.04172457 6.70619097 -0.04395172 8.10668945 -0.04541016 C9.5553246 -0.05184464 11.00395846 -0.05857348 12.45259094 -0.06558228 C15.4879558 -0.07754181 18.523207 -0.08126471 21.55859375 -0.08007812 C25.42410872 -0.07987556 29.28888335 -0.10711818 33.15422344 -0.14162254 C36.14764158 -0.16400732 39.14088521 -0.16791208 42.13437843 -0.16685867 C43.55796662 -0.16919955 44.98156075 -0.1779366 46.40506554 -0.19352341 C58.65389099 -0.31503573 68.42162342 1.72742639 77.5324707 10.29052734 C86.8126315 20.40673866 89.92743359 29.17016658 89.81762695 42.89599609 C89.20348665 50.20678956 86.67828717 56.96093172 81.5324707 62.29052734 C82.51979469 64.27399071 83.51303739 66.25302711 84.5324707 68.22021484 C85.0274707 69.18314453 85.0274707 69.18314453 85.5324707 70.16552734 C86.0274707 71.12072266 86.0274707 71.12072266 86.5324707 72.09521484 C90.84874257 81.57078043 91.29550218 92.7207706 87.7199707 102.54052734 C82.90786449 112.47651003 75.36385101 120.40697728 65.0402832 124.52099609 C60.39181307 125.94739581 56.10949934 126.42385597 51.24853516 126.4675293 C49.37552483 126.48678215 49.37552483 126.48678215 47.4646759 126.50642395 C46.108372 126.51459423 44.75206356 126.52203741 43.39575195 126.52880859 C42.36222627 126.53492188 42.36222627 126.53492188 41.30782127 126.54115868 C37.65883058 126.5619684 34.0098769 126.57629055 30.36083984 126.58569336 C26.61642851 126.59673165 22.87261568 126.63111549 19.12841511 126.67086506 C16.22766615 126.6971716 13.32705667 126.70539763 10.42619896 126.70897484 C9.04725299 126.71380671 7.66831179 126.72532217 6.28948402 126.74401283 C-5.99426903 126.90014337 -15.23561503 124.62036267 -24.4675293 116.29052734 C-31.97567292 108.88986226 -36.02637814 101.87815515 -36.4675293 91.29052734 C-36.53069336 90.49646484 -36.59385742 89.70240234 -36.65893555 88.88427734 C-37.03891214 81.13765785 -34.91186448 74.23056286 -30.8269043 67.64599609 C-29.21811155 65.32857323 -29.21811155 65.32857323 -29.5300293 62.41552734 C-30.46257838 59.3070304 -31.82300143 56.82871769 -33.47924805 54.05224609 C-37.91441278 46.14608288 -37.60090028 35.69674465 -35.4050293 27.10302734 C-31.91933 17.03868431 -24.76104226 8.8823145 -15.3425293 4.04052734 C-14.06135583 3.43449508 -12.76889102 2.85189907 -11.4675293 2.29052734 C-10.73483322 1.94879486 -10.00213715 1.60706238 -9.24723816 1.25497437 C-6.01728181 0.1343096 -3.41717259 0.02302929 0 0 Z " fill="#FDFDFD" transform="translate(129.467529296875,244.70947265625)"/>
<path d="M0 0 C1.18853577 -0.00960754 2.37707153 -0.01921509 3.60162354 -0.02911377 C4.87358582 -0.03336365 6.1455481 -0.03761353 7.45605469 -0.04199219 C8.43855824 -0.04623325 8.43855824 -0.04623325 9.44091034 -0.05056 C12.90836482 -0.06549954 16.37577827 -0.07476161 19.84326172 -0.07910156 C23.39809367 -0.08457381 26.95254022 -0.1085901 30.50725174 -0.13707352 C33.26474047 -0.15583215 36.02213886 -0.16091249 38.77968597 -0.16243744 C40.71931925 -0.16687943 42.65890389 -0.18545916 44.59844971 -0.20440674 C57.29985937 -0.17267185 67.23849843 2.64923018 76.56542969 11.47363281 C86.14052555 21.55153052 87.18937504 31.04576913 87.14355469 44.52832031 C87.14490446 45.93165148 87.14684758 47.33498219 87.14935303 48.73831177 C87.15229157 51.67177811 87.14804905 54.60512216 87.13867188 57.53857422 C87.12729918 61.27613041 87.13383092 65.01339858 87.1458168 68.75094414 C87.15308795 71.64737059 87.15072317 74.54373023 87.14556122 77.44015884 C87.14423811 78.81709961 87.14582487 80.19404668 87.15052032 81.57098007 C87.18447963 94.33012607 86.02244082 103.90680546 77.87792969 114.16113281 C70.04868495 121.87629019 60.60386565 126.22702241 49.64746094 126.35400391 C48.38514648 126.37006683 47.12283203 126.38612976 45.82226562 126.40267944 C44.44499392 126.41417338 43.06771457 126.42478082 41.69042969 126.43457031 C40.99195923 126.43989399 40.29348877 126.44521767 39.57385254 126.45070267 C35.87069805 126.47740003 32.16757672 126.4967785 28.46435547 126.51123047 C25.42075182 126.52451601 22.37782719 126.55227157 19.33447266 126.59326172 C15.64039596 126.64300006 11.94693008 126.66740176 8.25253296 126.67445755 C6.85567547 126.68110636 5.45882816 126.69615882 4.06216431 126.72034836 C-7.64890644 126.91147077 -16.93817418 124.92119279 -26.05957031 117.28613281 C-33.02218758 110.52460197 -37.05507163 103.79173001 -39.12207031 94.16113281 C-39.12207031 91.19113281 -39.12207031 88.22113281 -39.12207031 85.16113281 C-29.88207031 85.16113281 -20.64207031 85.16113281 -11.12207031 85.16113281 C-10.79207031 87.80113281 -10.46207031 90.44113281 -10.12207031 93.16113281 C-7.39922733 96.71315071 -5.84891152 97.87916735 -1.45016479 98.59741211 C1.89135298 98.79216101 5.19121754 98.80145311 8.53808594 98.75488281 C9.7607164 98.7549231 10.98334686 98.75496338 12.24302673 98.75500488 C14.82263339 98.74965285 17.4022398 98.73208408 19.98168945 98.703125 C23.93003135 98.66124311 27.87666855 98.66206078 31.82519531 98.66894531 C34.33367071 98.65845358 36.84213731 98.64551558 39.35058594 98.62988281 C40.53088882 98.6296814 41.71119171 98.62947998 42.92726135 98.62927246 C44.57938881 98.60540466 44.57938881 98.60540466 46.26489258 98.58105469 C47.23052628 98.5726355 48.19615997 98.56421631 49.1910553 98.55554199 C52.40133331 98.08430183 54.268577 97.06722205 56.87792969 95.16113281 C59.35837283 91.44046809 59.32174141 88.29572808 59.50292969 83.97363281 C59.54160156 83.22404297 59.58027344 82.47445312 59.62011719 81.70214844 C59.71421184 79.85554082 59.79715288 78.00837091 59.87792969 76.16113281 C58.58912903 76.17112556 58.58912903 76.17112556 57.27429199 76.18132019 C49.15350268 76.24158025 41.03278911 76.28718271 32.91182709 76.31656933 C28.73734451 76.33218549 24.56304761 76.35334914 20.38867188 76.38745117 C16.35565887 76.42018994 12.32282381 76.43801625 8.28968811 76.44576454 C6.75559185 76.45128212 5.22150468 76.46205636 3.68748474 76.47832298 C-9.84539898 76.61603979 -18.26759095 74.51395748 -28.26269531 65.15722656 C-36.9276152 56.18742986 -38.73260749 47.13336074 -38.59301758 35.01367188 C-38.36617027 28.98446751 -37.60996964 24.21185944 -34.12207031 19.16113281 C-33.63609375 18.40832031 -33.15011719 17.65550781 -32.64941406 16.87988281 C-27.05746689 8.94804286 -19.02228822 2.51328141 -9.34405518 0.61676025 C-6.1847248 0.16999291 -3.18884825 0.02093255 0 0 Z " fill="#FDFDFD" transform="translate(280.1220703125,244.8388671875)"/>
<path d="M0 0 C2.67021864 -0.01330768 5.33862206 -0.043809 8.00878906 -0.08203125 C11.89093625 -0.13718561 15.77205324 -0.15873221 19.65454102 -0.17333984 C20.83102707 -0.19600922 22.00751312 -0.21867859 23.21965027 -0.24203491 C35.08628003 -0.21222151 45.16090484 3.383398 54.17407227 11.18212891 C61.7302508 18.77937363 65.64915523 27.78584936 65.70358276 38.498703 C65.69279694 39.35466568 65.68201111 40.21062836 65.67089844 41.0925293 C65.67155556 42.48438446 65.67155556 42.48438446 65.67222595 43.90435791 C65.67015316 46.93987841 65.64689387 49.97483113 65.62329102 53.01025391 C65.61768969 55.12731118 65.61342213 57.24437237 65.61042786 59.36143494 C65.59902139 64.90989075 65.5695905 70.45810771 65.53631592 76.00646973 C65.50552427 81.67762014 65.49190313 87.34880947 65.47680664 93.02001953 C65.44471661 104.13016693 65.39198313 115.24007498 65.33032227 126.35009766 C56.42032227 126.35009766 47.51032227 126.35009766 38.33032227 126.35009766 C38.31573975 123.64991455 38.30115723 120.94973145 38.28613281 118.16772461 C38.23579856 109.24687763 38.16920548 100.32620541 38.09460735 91.40552998 C38.04987758 85.99684959 38.01062709 80.58824498 37.98388672 75.17944336 C37.95787992 69.95975995 37.91749585 64.74036776 37.867136 59.52086449 C37.85044958 57.52940683 37.83894637 55.53789879 37.83270836 53.546381 C37.82308668 50.75709114 37.79505038 47.9685493 37.76269531 45.17944336 C37.7641304 44.35585327 37.76556549 43.53226318 37.76704407 42.68371582 C37.69162606 38.08730619 37.28477893 35.09281973 34.33032227 31.35009766 C28.89923229 27.38403325 22.98800198 27.932418 16.54516602 27.98681641 C15.41131973 27.9863179 14.27747345 27.9858194 13.10926819 27.98530579 C10.71800987 27.98764123 8.32674887 27.99733839 5.93554688 28.01391602 C2.2772015 28.0375371 -1.38041593 28.03446892 -5.03881836 28.02783203 C-7.36499457 28.03340823 -9.69116773 28.04051774 -12.01733398 28.04931641 C-13.65654564 28.0479493 -13.65654564 28.0479493 -15.32887268 28.04655457 C-16.35020798 28.05608658 -17.37154327 28.06561859 -18.42382812 28.07543945 C-19.76568932 28.08235054 -19.76568932 28.08235054 -21.13465881 28.08940125 C-25.31719056 28.51952467 -27.82267714 29.58151989 -30.94805908 32.41752625 C-33.31238168 36.44486694 -33.24331116 39.67880976 -33.21557617 44.27124023 C-33.22591385 45.15954529 -33.23625153 46.04785034 -33.24690247 46.96307373 C-33.27632954 49.89044384 -33.27782963 52.81712251 -33.27905273 55.74462891 C-33.29403443 57.77773863 -33.31076155 59.81083619 -33.3291626 61.84391785 C-33.37284936 67.18847208 -33.39283824 72.53286213 -33.40789795 77.87756348 C-33.42746416 83.3340018 -33.46943476 88.7902627 -33.50952148 94.24658203 C-33.58483826 104.94772923 -33.63304982 115.64874802 -33.66967773 126.35009766 C-42.57967773 126.35009766 -51.48967773 126.35009766 -60.66967773 126.35009766 C-60.71498214 114.67515204 -60.7516247 103.00026545 -60.77330208 91.32525158 C-60.7837096 85.90324304 -60.79781313 80.48129811 -60.82055664 75.05932617 C-60.8423935 69.82031446 -60.85426913 64.58136369 -60.85943222 59.34230995 C-60.86310859 57.35018264 -60.87028728 55.35805841 -60.88113785 53.36595726 C-61.03071446 24.74914607 -61.03071446 24.74914607 -51.66967773 13.35009766 C-36.64153683 -1.43005412 -19.79428428 0.08975899 0 0 Z " fill="#FEFEFE" transform="translate(153.669677734375,83.64990234375)"/>
<path d="M0 0 C7.96290611 -0.06793397 15.92558471 -0.12290675 23.88870335 -0.15543652 C27.58680094 -0.17105375 31.28468899 -0.19221911 34.98266602 -0.22631836 C38.55532309 -0.25905369 42.12777933 -0.27688264 45.70057487 -0.28463173 C47.05966284 -0.29014995 48.41874054 -0.30092554 49.77774239 -0.31719017 C64.83863601 -0.49017625 64.83863601 -0.49017625 70.9375 4.625 C72.62134577 8.38889055 72.65021076 11.95424417 72 16 C69.63455608 20.11762461 67.44067359 21.57169547 63 23 C60.00700378 23.24050903 60.00700378 23.24050903 56.64916992 23.22705078 C54.75777534 23.22682419 54.75777534 23.22682419 52.82817078 23.22659302 C51.46226848 23.21638136 50.09636781 23.2059494 48.73046875 23.1953125 C47.32514141 23.19157941 45.91981147 23.18873383 44.51448059 23.18673706 C40.82700332 23.17912389 37.13968518 23.15949553 33.45227051 23.1373291 C29.68499911 23.11682059 25.91770184 23.10772467 22.15039062 23.09765625 C14.76684636 23.07624723 7.38346581 23.04108422 0 23 C0 15.41 0 7.82 0 0 Z " fill="#060606" transform="translate(268,111)"/>
<path d="M0 0 C1.08154861 -0.01283524 2.16309723 -0.02567047 3.27742004 -0.03889465 C4.44617172 -0.04628159 5.6149234 -0.05366852 6.8190918 -0.0612793 C8.02139938 -0.06935104 9.22370697 -0.07742279 10.46244812 -0.08573914 C13.00864215 -0.09957776 15.55485472 -0.1103009 18.10107422 -0.11816406 C21.99246377 -0.13538367 25.88300536 -0.17927451 29.77416992 -0.22338867 C32.24747096 -0.23351501 34.72077923 -0.2420313 37.1940918 -0.2487793 C38.93811028 -0.27504143 38.93811028 -0.27504143 40.71736145 -0.30183411 C47.00128989 -0.28498354 50.99446072 -0.16812228 55.70581055 4.17700195 C58.23356406 7.96863222 57.9302409 10.98574226 57.83081055 15.36450195 C57.82178711 16.1140918 57.81276367 16.86368164 57.8034668 17.63598633 C57.77993632 19.4831285 57.74406616 21.33010607 57.70581055 23.17700195 C49.59531397 23.26984492 41.4850409 23.34083869 33.3741436 23.38425064 C29.60755464 23.4050905 25.84133031 23.43334103 22.07495117 23.47875977 C18.43744468 23.52234794 14.80028802 23.54616614 11.16254044 23.55651093 C9.77748231 23.56387921 8.39244247 23.578268 7.00753403 23.59992218 C-6.4617861 23.80207447 -6.4617861 23.80207447 -11.29418945 19.17700195 C-13.4104929 16.49635093 -14.20227118 14.64680647 -14.85668945 11.30200195 C-14.05737766 6.86138089 -11.6397744 4.13186165 -8.29418945 1.17700195 C-5.26409853 0.16697165 -3.17160646 0.03278549 0 0 Z " fill="#0A0A0A" transform="translate(282.294189453125,271.822998046875)"/>
<path d="M0 0 C8.25821466 -0.06783571 16.5162119 -0.12285036 24.77463055 -0.15543652 C28.60954343 -0.17107795 32.44425545 -0.19228805 36.27905273 -0.22631836 C39.98137696 -0.25896667 43.68350825 -0.27686447 47.38596535 -0.28463173 C48.79694467 -0.29016547 50.20791369 -0.30097164 51.61881065 -0.31719017 C53.59822627 -0.33903449 55.57783693 -0.340226 57.55737305 -0.34057617 C58.68322311 -0.34723801 59.80907318 -0.35389984 60.96903992 -0.36076355 C65.17856924 0.14028057 67.75241071 1.83845135 70.8125 4.6875 C72.56934427 8.10872305 72.78220664 11.2951849 72 15 C70.24700706 18.0190434 68.16977599 20.41511201 65 22 C62.93707015 22.09160337 60.87111115 22.1175118 58.80615234 22.11352539 C57.50495453 22.11344986 56.20375671 22.11337433 54.86312866 22.11329651 C53.43739789 22.10818947 52.0116675 22.10297347 50.5859375 22.09765625 C49.13148039 22.09579147 47.67702266 22.09436785 46.2225647 22.09336853 C42.39207224 22.08954805 38.56161763 22.07972176 34.73114014 22.06866455 C30.82336947 22.05844035 26.91559269 22.05386874 23.0078125 22.04882812 C15.33852241 22.03809908 7.66927132 22.02050607 0 22 C0 14.74 0 7.48 0 0 Z " fill="#010101" transform="translate(268,161)"/>
<path d="M0 0 C1.08462524 -0.00953201 2.16925049 -0.01906403 3.28674316 -0.02888489 C4.44830933 -0.02797348 5.60987549 -0.02706207 6.80664062 -0.02612305 C8.00848999 -0.03040817 9.21033936 -0.0346933 10.4486084 -0.03910828 C12.98705414 -0.04484563 15.52551633 -0.04535623 18.06396484 -0.04101562 C21.94852686 -0.03785349 25.83232886 -0.06133109 29.71679688 -0.08666992 C32.18424383 -0.08894273 34.65169283 -0.0896465 37.11914062 -0.08862305 C38.86148987 -0.10243767 38.86148987 -0.10243767 40.63903809 -0.11653137 C41.72366333 -0.11030258 42.80828857 -0.10407379 43.92578125 -0.09765625 C44.87666626 -0.09828568 45.82755127 -0.0989151 46.80725098 -0.0995636 C50.78331636 0.46072716 53.42257481 2.27021534 56.27539062 5.0246582 C57.99157388 8.27637384 57.84451151 10.64925982 57.46289062 14.2746582 C55.94296959 17.45925467 54.17993104 20.01045786 51.46289062 22.2746582 C48.45833443 23.27617693 46.40260907 23.41856214 43.26049805 23.45166016 C42.19897018 23.46449539 41.13744232 23.47733063 40.04374695 23.49055481 C38.3234301 23.50163521 38.3234301 23.50163521 36.56835938 23.51293945 C35.38824783 23.5210112 34.20813629 23.52908295 32.99226379 23.53739929 C30.49314848 23.55123735 27.9940143 23.56196074 25.49487305 23.56982422 C21.67590504 23.58704316 17.85780124 23.63093432 14.0390625 23.67504883 C11.61133449 23.68517525 9.18359912 23.69369151 6.75585938 23.70043945 C5.61505417 23.71794754 4.47424896 23.73545563 3.2988739 23.75349426 C-4.44888939 23.73232999 -8.02188626 22.78988132 -13.53710938 17.2746582 C-14.85645403 12.62907844 -14.9888555 9.23027502 -12.91210938 4.8371582 C-9.10721892 0.73188166 -5.47162733 0.02651207 0 0 Z " fill="#0A0A0A" transform="translate(134.537109375,271.725341796875)"/>
<path d="M0 0 C1.1416864 -0.01606293 2.2833728 -0.03212585 3.45965576 -0.04867554 C8.68825511 -0.09306778 13.91676671 -0.13463788 19.14550781 -0.15722656 C21.90430985 -0.17055018 24.66236943 -0.19837133 27.42089844 -0.23925781 C31.39418491 -0.29814613 35.36711238 -0.31589876 39.34082031 -0.33056641 C40.57225769 -0.35323578 41.80369507 -0.37590515 43.07244873 -0.39926147 C52.61747994 -0.37569411 52.61747994 -0.37569411 56.30664062 2.60058594 C58.92052209 5.62919718 59.47446442 6.47026983 59.85644531 10.44287109 C59.48722684 14.87349275 58.37555684 16.81066844 55.54394531 20.19287109 C52.34746184 22.24114409 49.78623075 22.44969681 46.02856445 22.4675293 C44.92384293 22.47706131 43.8191214 22.48659332 42.68092346 22.49641418 C41.49232224 22.49550278 40.30372101 22.49459137 39.07910156 22.49365234 C37.8536412 22.49793747 36.62818085 22.5022226 35.36558533 22.50663757 C32.77408465 22.5123804 30.18256786 22.51288149 27.59106445 22.50854492 C23.62520865 22.50538604 19.66009944 22.52884236 15.69433594 22.55419922 C13.17675875 22.5564723 10.65917956 22.55717567 8.14160156 22.55615234 C6.95502457 22.56536209 5.76844757 22.57457184 4.5459137 22.58406067 C3.43804001 22.57783188 2.33016632 22.57160309 1.1887207 22.56518555 C-0.26877846 22.56612968 -0.26877846 22.56612968 -1.75572205 22.5670929 C-5.96575345 21.98365161 -8.59538341 20.19698758 -11.33105469 17.00537109 C-12.8781459 13.13764307 -12.65647337 10.15425273 -11.45605469 6.19287109 C-8.04266792 1.01773631 -6.03079277 0.07695628 0 0 Z " fill="#030303" transform="translate(132.4560546875,321.80712890625)"/>
</svg>
